<?xml version="1.0" standalone="no"?><!DOCTYPE svg PUBLIC "-//W3C//DTD SVG 1.1//EN" "http://www.w3.org/Graphics/SVG/1.1/DTD/svg11.dtd"><svg t="1774011778898" class="icon" viewBox="0 0 1024 1024" version="1.1" xmlns="http://www.w3.org/2000/svg" p-id="6798" xmlns:xlink="http://www.w3.org/1999/xlink" width="200" height="200"><path d="M811.008 227.08224v598.016H212.992v-598.016h598.016z m-598.016-69.632a69.632 69.632 0 0 0-69.632 69.632v598.016a69.632 69.632 0 0 0 69.632 69.632h598.016a69.632 69.632 0 0 0 69.632-69.632v-598.016a69.632 69.632 0 0 0-69.632-69.632H212.992z" fill="#111827" p-id="6799"></path><path d="M286.96576 286.88384a34.69312 34.69312 0 0 0-11.38688 7.5776l-0.04096 0.08192a34.69312 34.69312 0 0 0-10.15808 24.576v141.76256a34.816 34.816 0 0 0 69.632 0v-57.7536l94.12608 94.12608a34.816 34.816 0 1 0 49.23392-49.23392L384.28672 353.93536h57.7536a34.816 34.816 0 1 0 0-69.632H300.15488a34.69312 34.69312 0 0 0-13.23008 2.58048zM750.46912 751.77984a35.30752 35.30752 0 0 1-11.63264 8.72448 34.69312 34.69312 0 0 1-14.62272 3.19488H582.4512a34.816 34.816 0 1 1 0-69.632h57.7536l-94.49472-94.49472a34.816 34.816 0 0 1 49.23392-49.23392l94.49472 94.49472v-57.7536a34.816 34.816 0 1 1 69.632 0v141.80352a34.73408 34.73408 0 0 1-8.56064 22.89664z" fill="#111827" p-id="6800"></path></svg>